<svg xmlns="http://www.w3.org/2000/svg" viewBox="0 0 64 64">
  <defs>
    <linearGradient id="heart" x1="0%" y1="0%" x2="100%" y2="100%">
      <stop offset="0%" stop-color="#ff6b9d"/>
      <stop offset="55%" stop-color="#e11d48"/>
      <stop offset="100%" stop-color="#9f1239"/>
    </linearGradient>
    <radialGradient id="glow" cx="35%" cy="30%" r="65%">
      <stop offset="0%" stop-color="#fff0f5" stop-opacity="0.55"/>
      <stop offset="100%" stop-color="#e11d48" stop-opacity="0"/>
    </radialGradient>
  </defs>
  <circle cx="32" cy="32" r="30" fill="#3d2314"/>
  <circle cx="32" cy="32" r="28" fill="url(#heart)"/>
  <path fill="#ffffff" d="M32 48.5c-.6 0-1.1-.2-1.5-.7C25.8 42 20 36.4 16.8 32.4 14.2 29.2 13 26.4 13 23.4c0-5 3.9-8.9 8.8-8.9 2.8 0 5.4 1.3 7.2 3.5L32 21.6l3 3.6c1.8-2.2 4.4-3.5 7.2-3.5 4.9 0 8.8 3.9 8.8 8.9 0 3-1.2 5.8-3.8 9-3.2 4-9 9.6-13.7 15.4-.4.5-.9.7-1.5.7z"/>
  <circle cx="24" cy="22" r="6" fill="url(#glow)"/>
</svg>
